<?xml version="1.0" standalone="yes"?>
<!-- Generator: https://ezgif.com/png-to-svg -->
<svg xmlns="http://www.w3.org/2000/svg" width="1131" height="1144">
<path style="fill:#012537; stroke:none;" d="M0 0L0 1144L1131 1144L1131 0L0 0z"/>
<path style="fill:#b1d9ff; stroke:none;" d="M445 556L303 556L303 612L362 612C359.2 622.473 355.686 632.967 347.826 640.826C315.909 672.744 255.45 654.595 238.873 616C226.941 588.222 227.354 551.499 242.428 525C261.63 491.245 307.324 476.236 339.996 501.239C350.41 509.209 355.589 520.016 362 531L430 504C426.913 490.51 415.349 476.842 406.086 467.015C370.583 429.352 312.232 419.412 263 430.425C190.215 446.708 149.325 515.077 156.17 587C159.408 621.033 171.443 654.366 196.039 678.961C249.606 732.523 349.066 732.143 404 680.911C439.21 648.073 445 601.385 445 556M612 427.424C588.381 430.564 566.431 436.706 546 449.425C473.175 494.762 455.42 601.495 512.289 667C547.276 707.299 600.792 723.979 653 717.714C674.216 715.169 695.356 708.068 714 697.691C788.786 656.067 806.887 550.84 755.764 484C723.045 441.221 665.012 420.378 612 427.424z"/>
<path style="fill:#012537; stroke:none;" d="M622 496.428C559.498 505.383 528.109 586.009 579 629.7C587.206 636.745 596.729 642.1 607 645.481C619.495 649.594 633.106 649.694 646 647.83C655.676 646.432 665.723 642.288 674 637.185C682.378 632.02 690.108 625.064 695.791 617C733.569 563.399 687.599 487.03 622 496.428z"/>
<path style="fill:#b1d9ff; stroke:none;" d="M831 604L831 656C831 668.628 830.587 681.577 836.905 693C850.326 717.267 900.47 717.836 914.647 694C921.41 682.63 921 669.728 921 657L921 604L894 604L894 662C894 671.259 893.495 680.771 883.999 685.543C873.216 690.963 861.573 683.932 858.9 673C853.787 652.093 858 625.517 858 604L831 604M943 604L943 708L970 708L970 604L943 604M801 731L801 777L1009 777L1009 731L801 731z"/>
</svg>
